<?xml version="1.0" standalone="no"?>
<!DOCTYPE svg PUBLIC "-//W3C//DTD SVG 20010904//EN"
 "http://www.w3.org/TR/2001/REC-SVG-20010904/DTD/svg10.dtd">
<svg version="1.0" xmlns="http://www.w3.org/2000/svg"
 width="32.000000pt" height="32.000000pt" viewBox="0 0 32.000000 32.000000"
 preserveAspectRatio="xMidYMid meet">

<g transform="translate(0.000000,32.000000) scale(0.100000,-0.100000)"
fill="#000000" stroke="none">
<path d="M181 226 c-12 -15 0 -34 37 -56 16 -9 16 -11 0 -20 -9 -6 -24 -18
-33 -27 -14 -14 -14 -18 -2 -30 12 -12 22 -9 70 19 33 19 57 39 57 49 0 10
-23 29 -59 48 -49 26 -61 29 -70 17z"/>
<path d="M63 218 c-27 -35 -55 -98 -50 -112 10 -26 35 -18 53 16 l16 31 20
-32 c21 -33 50 -39 55 -11 4 21 -55 120 -71 120 -7 0 -18 -6 -23 -12z"/>
</g>
</svg>
